<?xml version="1.0" encoding="UTF-8" standalone="no"?>
<svg xmlns:rdf="http://www.w3.org/1999/02/22-rdf-syntax-ns#" xmlns="http://www.w3.org/2000/svg" height="1512.2" viewBox="0 0 1781.25 1512.1875" width="1781.2" version="1.1" xmlns:cc="http://creativecommons.org/ns#" xmlns:dc="http://purl.org/dc/elements/1.1/">
<path d="m713.91 1511.6c-51.761-5.6256-95.167-40.423-110.94-88.942-4.1042-12.621-6.4765-12.327-11.343 1.4062-38.309 108.11-186.77 117.64-238.3 15.301-22.613-44.91-16.196-101.96 15.769-140.21l3.3401-3.9967-44.42-0.4688-44.42-0.4687-4.9908-2.7647c-12.362-6.8481-13.759-11.136-13.759-42.235 0-39.636 4.9279-45.469 38.415-45.469h15.106l2.1239-10.898c9.3036-47.738 31.159-77.468 80.762-109.86 9.0234-5.8925 18.094-11.815 20.156-13.162 30.038-19.612 35.589-27.717 45.526-66.473 21.932-85.539 39.588-116.86 74.434-132.04l6.1337-2.6721v-6.225c0-5.5459-0.31607-6.6226-2.8972-9.8695-5.5975-7.0413-5.9494-8.6348-5.9805-27.082-0.037-21.921 2.1004-27.289 13.565-34.068l4.2188-2.4945h201.56 201.56l4.3744 2.5715c28.097 16.517 16.981 69.543-14.851 70.841l-9.5394 0.38888 0.16435 26.381 0.16434 26.381 106.17 0.23838c58.395 0.13111 106.17 0.0185 106.17-0.25039 0-0.58215-57.561-160.2-71.332-197.8-13.88-37.902-12.33-51.586 6.5462-57.771 1.8586-0.60894 23.207-11.87 47.442-25.024 54.061-29.344 44.236-26.429 88.977-26.401 44.754 0.028 48.863 1.6028 140.85 53.978 12.947 7.3718 16.72 24.72 8.2368 37.874-1.6171 2.5076-75.872 206.25-77.986 213.98-0.4253 1.5551 4.8234 1.6411 100.68 1.6498l101.12 0.009 4.7232 2.1994c11.419 5.3173 15.433 14.007 15.433 33.414v12.916l17.578 0.38297c40.603 0.88434 38.782-4.7933 38.455 119.88l-0.2517 96.029-2.7931 5.043c-6.2835 11.345-13.622 14.176-36.752 14.176-24.683 0-25.148 3.4104-0.533 3.9118 29.354 0.5979 34.97 6.697 35.826 38.913l0.5027 18.919 99.375 86.354c54.656 47.495 101.74 88.814 104.63 91.82 14.114 14.684 8.7346 37.138-10.464 43.68-3.6828 1.2548-24.035 1.3939-172.45 1.1783l-168.28-0.2445-4.2188-1.9823c-14.822-6.9642-18.358-19.481-11.857-41.967 3.5467-12.268 4.1013-16.464 1.1018-8.3375-36.032 97.627-171.5 89.831-207.34-11.932-0.2743-0.7791-1.4417 1.5208-2.6176 5.1563-32.86 101.6-179.68 99.293-208.99-3.2813l-2.2772-7.9687h-66.701-66.7l-3.2011 9.5412c-18.928 56.417-76.927 94.151-135.01 87.839zm34.219-23.649c113.57-30.384 98.878-195.71-18.052-203.19-125.49-8.0295-150.37 180.21-26.948 203.92 2.8359 0.5448 6 1.1835 7.0312 1.4192 5.0204 1.1477 31.182-0.3326 37.969-2.1483zm-37.674-6.7065c-11.329-1.8023-32.638-9.1661-32.638-11.279 0-0.5974 25.767-45.713 26.582-46.543 0.0932-0.095 2.6934 0.6396 5.7782 1.632 3.0848 0.9926 6.769 2.0274 8.1869 2.2997l2.5781 0.4952v26.701 26.701h2.3294 2.3294l0.24874-26.928 0.24876-26.928 4.215-0.7191c2.3182-0.3956 5.7696-1.3413 7.6696-2.1015l3.4546-1.3823 13.117 22.701c7.2142 12.486 13.784 22.838 14.599 23.005 3.7154 0.7612 1.857-3.6847-10.494-25.103l-13.044-22.622 5.9207-6.0385 5.9207-6.0383 22.676 13.108c24.701 14.279 23.779 13.86 25.095 11.4 0.80707-1.508-1.6947-3.2175-21.295-14.55-12.215-7.0629-22.745-13.179-23.399-13.592-0.95301-0.6011-0.92015-1.5139 0.1652-4.5901 0.74515-2.112 1.6448-5.7736 1.9992-8.1369l0.64437-4.2969h27.081 27.081v-2.3438-2.3437h-27.094-27.094l-1.1568-4.9219c-0.63624-2.707-1.7373-6.0694-2.4469-7.472-1.5334-3.0314-4.4836-0.9057 24.276-17.493 25.076-14.462 22.276-13.813 25.78-5.9728 30.418 68.049-26.806 144.89-99.315 133.35zm-43.663-18.254c-8.4198-6.3293-25.826-25.858-24.34-27.307 0.11439-0.1116 10.492-6.121 23.06-13.354l22.852-13.151 5.9356 6.0239 5.9356 6.0239-13.265 22.982c-7.2955 12.64-13.564 22.982-13.929 22.982-0.36564 0-3.1782-1.8893-6.25-4.1985zm-30.135-38.385c-3.5138-8.4406-6.397-20.14-7.2308-29.34l-0.61857-6.8262h26.689 26.688l1.4743 6.3281c0.81084 3.4805 1.7549 7.1983 2.098 8.2619 0.5196 1.611-42.736 28.535-45.844 28.535-0.19766 0-1.6629-3.1313-3.2561-6.9583zm-7.5907-42.193c0-8.57 4.9798-27.556 9.5917-36.57l2.1271-4.157 22.5 13.05c12.375 7.1777 22.808 13.162 23.184 13.298 0.376 0.1364-0.12409 2.5683-1.1113 5.4042-0.9872 2.8359-2.0412 6.3164-2.3421 7.7344l-0.54718 2.5781h-26.701c-22.508 0-26.701-0.2102-26.701-1.3384zm37.5-31.091c-12.117-6.9895-22.357-13.024-22.755-13.41-2.3039-2.2346 26.021-31.315 30.19-30.995 0.29358 0.023 6.4905 10.432 13.771 23.131l13.237 23.09-5.6211 5.228c-3.0916 2.8754-5.8843 5.3259-6.2059 5.4456-0.32158 0.1198-10.499-5.5009-22.616-12.49zm83.865 7.332-5.6666-5.3716 10.02-17.344c5.5112-9.5391 11.676-20.194 13.699-23.678l3.6786-6.3349 4.624 3.0536c8.4912 5.6074 26.655 24.422 26.655 27.61 0 0.7457-44.326 26.758-46.385 27.221-0.52708 0.1184-3.5083-2.2019-6.6249-5.1563zm-47.08-10.705c-4.3655-7.22-23.73-41.103-24.219-42.378-1.3864-3.6128 26.655-12.758 39.12-12.758h2.6897v27.188c0 25.454-0.10651 27.188-1.6707 27.188-1.7623 0-9.9206 2.0906-12.514 3.2068-1.1033 0.4749-2.051-0.2059-3.4057-2.4463zm34.45 2.1c-0.77344-0.4987-3.832-1.3906-6.7969-1.9817l-5.3906-1.0747v-27.066-27.066h3.1584c10.232 0 39.231 8.3236 38.983 11.189-0.1159 1.3412-26.783 46.368-27.61 46.62-0.51563 0.157-1.5703-0.1228-2.3438-0.6216zm-250 137.75c87.669-17.866 111.61-132.66 38.592-185.08-52.484-37.677-129.52-15.954-154.32 43.512-32.094 76.967 34.284 158.16 115.73 141.57zm-37.494-7.8234c-9.3543-1.784-26.836-8.0038-29.233-10.401-0.23729-0.2374 5.5921-10.917 12.954-23.732l13.386-23.301 4.8023 1.6674c2.6413 0.9169 6.3843 1.9223 8.3179 2.234l3.5156 0.5668v26.676 26.676h2.3438 2.3438v-26.641-26.641l4.7007-1.0081c2.5854-0.5544 6.1498-1.6136 7.921-2.3536l3.2203-1.3455 13.396 23.283c11.627 20.207 13.615 23.166 15.048 22.399 2.4902-1.3328 2.5802-1.133-11.417-25.361l-13.068-22.62 2.2229-1.7485c1.2226-0.9617 3.8759-3.6265 5.8963-5.9218l3.6734-4.1731 22.664 13.097c24.391 14.095 23.99 13.914 25.322 11.424 0.78262-1.4624-2.0557-3.3736-22.507-15.156-18.304-10.545-23.272-13.806-22.804-14.967 0.32958-0.8166 1.297-4.3294 2.1498-7.8062l1.5506-6.3216 26.953-0.01 26.953-0.01v-2.3438-2.3437l-26.953-0.01-26.953-0.01-1.9566-6.7904c-1.0762-3.7347-2.1308-7.3493-2.3438-8.0324-1.929-6.189 47.519-28.554 50.154-22.684 31.455 70.092-28.017 147.85-102.25 133.7zm-38.289-16.187c-12.305-8.7572-28.438-27.859-25.103-29.723 0.91623-0.5121 11.316-6.4965 23.112-13.299l21.446-12.368 5.9362 6.0542 5.9362 6.0542-12.014 20.787c-6.6078 11.433-12.602 21.922-13.319 23.308l-1.3053 2.5215-4.6875-3.3361zm-32.253-40.072c-3.424-8.2247-6.3078-19.75-7.1953-28.757l-0.63772-6.4718h26.741 26.741l1.5573 6.3281c0.8565 3.4805 1.6391 7.0905 1.7392 8.0223 0.15557 1.4491-42.684 27.668-45.434 27.806-0.3386 0.017-1.9192-3.1003-3.5124-6.9273zm-7.1362-46.245c1.6232-15.264 9.1341-36.69 12.425-35.443 1.4742 0.5587 38.044 21.366 43.018 24.476l1.9907 1.2448-1.7477 5.4468c-0.96125 2.9957-1.9706 6.6069-2.2429 8.0249l-0.49518 2.5781h-26.81-26.81l0.67292-6.3281zm37.859-26.44c-12.054-6.9854-22.448-13.046-23.098-13.468-2.7216-1.7667 14.558-21.313 25.296-28.614l4.4179-3.0038 1.3486 2.1302c2.1029 3.3216 25.036 43.093 25.222 43.741 0.091 0.3174-2.4075 3.1283-5.5522 6.2465l-5.7178 5.6695-21.916-12.701zm83.292 7.0917c-2.9839-3.082-5.217-6.1464-4.9624-6.8097 0.36757-0.9578 25.611-45.134 26.305-46.034 0.10104-0.1309 3.1 1.8216 6.6643 4.339 10.85 7.6635 26.464 25.204 24.208 27.197-0.79457 0.7022-37.259 21.76-43.828 25.31l-2.9621 1.6008-5.4252-5.6036zm-48.723-13.404c-6.5138-10.879-22.162-38.304-22.776-39.915-1.2525-3.2899 20.173-10.801 35.44-12.425l6.3281-0.6729v27.101 27.101l-6.3281 1.5121c-3.4805 0.8315-7.0194 1.7904-7.8643 2.1307-1.1584 0.4666-2.3387-0.7217-4.7997-4.8321zm34.93 4.1c-1.2891-0.5151-4.3477-1.367-6.7969-1.8933l-4.4531-0.9567v-27.231-27.231l6.4718 0.6377c11.518 1.135 35.716 8.3179 35.716 10.602 0 1.3981-26.85 47.066-27.656 47.04-0.51562-0.017-1.9922-0.4521-3.2812-0.9671zm630.47 128.59c61.633-15.491 83.397-92.598 38.906-137.84-53.609-54.512-144.25-15.183-141.33 61.321 1.995 52.186 51.646 89.28 102.42 76.517zm-30.597-46.46c-24.65-7.8383-32.189-40.13-13.633-58.393 23.219-22.853 61.143-5.7371 59.535 26.869-1.1213 22.73-24.047 38.474-45.902 31.524zm24.782-4.5346c16.117-7.8855 22.781-27.03 14.947-42.944-15.137-30.747-60.206-20.153-60.509 14.223-0.203 23.071 24.842 38.858 45.562 28.72zm217.9 50.971c58.376-13.986 82.274-84.58 44.714-132.08-37.812-47.819-113.98-38.446-139.69 17.19-28.88 62.508 27.736 131 94.972 114.89zm-32-47.278c-35.819-15.079-26.083-67.397 12.569-67.544 37.544-0.1419 49.211 50.062 15.47 66.569-7.9965 3.9122-20.064 4.3315-28.039 0.9742zm27.059-4.2058c26.796-13.192 22.304-52.19-6.8728-59.665-10.901-2.7928-23.517 1.0775-30.917 9.4845-23.433 26.621 6.069 65.796 37.79 50.18zm433.12 36.534c-0.4899-0.4816-47.719-41.818-104.95-91.858l-104.06-90.982-32.542-0.017-32.542-0.017-0.9522 3.5156c-3.0124 11.122-48.841 176.99-49.308 178.46-0.5513 1.7367 2.9308 1.7748 162.34 1.7748 100.94 0 162.57-0.3331 162.02-0.8757zm-211.36-202.09v-12.656h-625.31-625.31v12.656 12.656h625.31 625.31v-12.656zm-975-194.66v-169.82l-4.9219 0.50861c-18.136 1.8741-34.278 15.061-45.09 36.836-7.9566 16.023-12.669 31.976-25.462 86.199-10.292 43.62-18.322 53.708-69.369 87.142-55.472 36.333-79.018 74.037-79.211 126.84l-0.008 2.1094h112.03 112.03v-169.82zm345.94-28.931v-198.75h-167.81-167.81v198.75 198.75h167.81 167.81v-198.75zm-314.36-5.3013c-0.34993-0.3499-0.63624-38.746-0.63624-85.324v-84.687h35.63 35.63l-0.23934 85.078-0.23933 85.078-34.754 0.2456c-19.115 0.1351-35.041-0.04-35.391-0.3907zm104.59-84.464 0.23933-85.078 93.047-0.23892 93.047-0.23893v85.317 85.317h-93.286-93.286l0.23934-85.078zm786.33 144.61v-143.91h-284.06-284.06v143.91 143.91h284.06 284.06v-143.91zm57.188-4.2341v-90.953l-25.078 0.24975-25.078 0.24966-0.2391 90.703-0.239 90.703h25.317 25.317v-90.953zm-281.5-161.85c0.5003-1.418 19.104-53.263 41.342-115.21 22.238-61.948 40.432-112.89 40.432-113.2 0-0.31324-55.477-0.56953-123.28-0.56953-71.41 0-123.28 0.35109-123.28 0.83442 0 0.67739 40.766 114.11 75.76 210.8l7.2086 19.918 40.455 0.004 40.455 0.004 0.9097-2.5781zm-313.85-100.08v-7.9688h-193.12-193.12v7.9688 7.9688h193.12 193.12v-7.9688zm397.49-139c-0.01-0.37937-20.377-10.92-45.266-23.424l-45.252-22.734h-33.805-33.805l-46.554 22.948c-25.6 12.62-46.5 23.17-46.5 23.44 0 0.27305 56.531 0.48748 125.62 0.47651 69.094-0.011 125.62-0.33035 125.61-0.70971zm-132.6-125.88c-44.177-5.7917-80.375-36.311-94.586-79.748l-3.1134-9.5161-6.4626-2.0678c-26.341-8.4285-47.315-30.565-53.584-56.557-1.5919-6.5995-1.7015-6.7611-4.9095-7.2404-64.66-9.67-111.42-50.02-126.52-109.19-32.09-125.75 105.42-227.66 216.82-160.62l5.4095 3.2572 4.903-4.705c76.034-72.963 202.39 2.421 174.98 104.39-1.1091 4.125-2.1812 8.1328-2.3827 8.9062-0.2328 0.894 1.4301 2.4958 4.5649 4.3975 61.386 37.238 70.167 125.75 18.221 183.67l-4.1159 4.5892-0.5158 13.125c-2.5739 65.493-63.024 115.91-128.66 107.31zm34.799-24.819c41.37-10.457 67.952-45.193 68.242-89.178l0.1-15.128 7.0355-7.3722c47.373-49.64 33.199-131.24-28.146-162.04-2.8359-1.4238-5.2767-2.6936-5.4239-2.8218-0.1472-0.12813 1.2065-2.7141 3.0081-5.7466 18.455-31.063 12.922-73.556-12.927-99.285-38.662-38.481-102.73-29.72-130.48 17.841-0.89 1.5253-1.4241 1.2882-5.7472-2.5514-55.269-49.087-142.08-37.082-182.87 25.288-52.439 80.177 5.4899 187.76 101.31 188.14l12.961 0.0519-0.5852 6.0938c-2.9707 30.938 23.824 60.938 54.427 60.938h5.7757l0.6372 5.8594c6.1203 56.28 58.688 93.558 112.69 79.909zm-607.15-226.82c-14.889-3.2076-29.571-10.367-39.953-19.482l-3.2178-2.8252-5.7915 1.625c-18.742 5.2588-39.417 0.86972-54.881-11.651l-5.8743-4.7563-4.4382 2.2457c-73.77 37.32-160.96-19.67-157.46-102.92 2.33-55.46 50.2-103.69 102.91-103.69 5.3737 0 5.4338-0.03033 6.0365-3.0469 16.07-80.427 132.92-85.704 154.22-6.9649 1.0944 4.0456 1.4512 4.4622 3.4021 3.9725 11.504-2.8872 47.088 8.1287 59.155 18.313 21.061 17.774 35.272 56.91 31.41 86.496l-0.83895 6.4263 4.0758 6.2055c40.24 61.29-17.21 145.46-88.77 130.05zm33.589-17.386c46.387-12.978 65.304-70.478 35.303-107.31l-4.2583-5.228 1.545-8.1837c9.2686-49.093-35.108-96.532-83.724-89.502l-5.8259 0.84247-0.53282-4.2934c-3.5-28.155-17.71-46.665-42.2-54.978-39.18-13.294-81.09 16.544-81.09 57.724v7.2081l-5.3906-0.88477c-52.01-8.536-102.48 36.314-102.41 91.014 0.0891 72.317 81.599 116.17 141.4 76.082l8.0729-5.4118 2.6436 4.6287c11.186 19.585 36.49 26.609 56.822 15.772l5.4887-2.9255 7.4119 7.3311c18.408 18.207 42.766 24.818 66.734 18.112zm-615.78 7.56c-55.484-7.62-78.334-74.78-38.816-114.09l7.6633-7.623-1.8722-5.502c-14.852-43.648 35.245-81.761 73.57-55.971 4.7344 3.1861 4.9701 3.2426 7.2524 1.7407 28.205-18.561 64.621-9.5077 80.723 20.068 1.9136 3.515 3.4133 4.7292 9.761 7.9028 49.361 24.678 33.552 97.091-21.779 99.757-9.4978 0.45775-9.6138 0.49185-11.909 3.5009-5.6853 7.4539-17.433 12.654-28.589 12.656l-7.0986 0.00093-2.5322 4.4522c-12.858 22.606-40.911 36.596-66.374 33.1zm21.331-10.839c18.145-4.2782 35.207-20.183 40.851-38.081 0.43786-1.3885 0.91799-1.3707 5.4768 0.20377 12.757 4.4058 28.702-2.4136 32.742-14.003l0.91572-2.6268 6.2945 1.3332c50.047 10.6 69.339-65.568 20.506-80.961-4.5766-1.4426-5.0337-1.8765-7.4929-7.1108-12.344-26.273-50.258-33.977-72.249-14.68l-3.6551 3.2073-4.2152-4.5064c-30.578-32.691-83.23 8.6487-59.226 46.5 1.5303 2.413 2.7823 4.5236 2.7823 4.6902 0 0.16663-2.474 1.83-5.4978 3.6964-53.286 32.89-18.252 116.72 42.767 102.34z"/>
</svg>
